<?xml version="1.0" standalone="no"?><!DOCTYPE svg PUBLIC "-//W3C//DTD SVG 1.1//EN" "http://www.w3.org/Graphics/SVG/1.1/DTD/svg11.dtd"><svg t="1605691147412" class="icon" viewBox="0 0 1024 1024" version="1.1" xmlns="http://www.w3.org/2000/svg" p-id="7335" xmlns:xlink="http://www.w3.org/1999/xlink" width="200" height="200"><defs><style type="text/css"></style></defs><path d="M512 512m-512 0a512 512 0 1 0 1024 0 512 512 0 1 0-1024 0Z" fill="#7FA7DA" p-id="7336"></path><path d="M504.723 728.44l-36.378-25.19c-5.317-3.719-7.773-10.387-6.124-16.697l30.488-118.104a15.659 15.659 0 0 0-2.13-12.494l-6.543-9.975c-1.832-2.756-2.706-6.006-2.55-9.314v-1.27c0.41-8.037 6.934-14.463 15.015-14.797h29.431c8.086 0.326 14.594 6.76 15.021 14.797v1.27c0.149 3.309-0.717 6.559-2.521 9.314l-6.381 9.762c-2.465 3.818-3.179 8.531-1.893 12.889l25.613 87.398c48.098-45.078 119.96-76.627 202.328-85.217-31.28-31.619-69.935-55.099-112.602-68.203a15.012 15.012 0 0 1-9.791-11.244 15.053 15.053 0 0 1 4.721-14.174c57.816-53.109 77.1-136.276 48.602-209.417-28.504-73.164-98.977-121.342-177.49-121.342S362.554 194.61 334.017 267.774c-28.503 73.142-9.185 156.309 48.6 209.417a15.1 15.1 0 0 1 4.66 14.238c-1.112 5.227-4.895 9.494-9.941 11.174a264.929 264.929 0 0 0-122.337 79.787 192.465 192.465 0 0 0-49.745 112.816c2.634 28.223 21.614 52.26 48.473 61.387a335.914 335.914 0 0 0 82.538 23.311 1114.479 1114.479 0 0 0 156.52 13.727c-0.036-1.384-0.074-2.767-0.074-4.156-0.003-21.173 4.193-41.649 12.012-61.035z" fill="#FFFFFF" p-id="7337"></path><path d="M687.203 779.904a336.495 336.495 0 0 0 82.342-23.311c26.645-9.01 45.563-32.736 48.48-60.734-0.656-17.986-4.598-35.742-11.654-52.287a226.86 226.86 0 0 0-37.459-61.182 269.965 269.965 0 0 0-10.814-11.578c-82.368 8.59-154.23 40.139-202.328 85.217l8.875 30.285a15.732 15.732 0 0 1-6.129 17.182l-35.984 24.959a15.65 15.65 0 0 1-17.787 0l-0.021-0.015c-7.818 19.386-12.014 39.861-12.014 61.034 0 1.39 0.038 2.772 0.074 4.156a1114.705 1114.705 0 0 0 194.419-13.726z" fill="#FFFFFF" opacity=".4" p-id="7338"></path></svg>